<svg version="1.1" id="Layer_1" xmlns="http://www.w3.org/2000/svg" xmlns:xlink="http://www.w3.org/1999/xlink" x="0px" y="0px"
	 width="100%" viewBox="0 0 512 512" enable-background="new 0 0 512 512" xml:space="preserve">
<path fill="#000000" opacity="1.000000" stroke="none" 
	d="
M1.000000,199.000000 
	C1.000000,132.666672 1.000000,66.833336 1.000000,1.000000 
	C171.666672,1.000000 342.333344,1.000000 513.000000,1.000000 
	C513.000000,171.666672 513.000000,342.333344 513.000000,513.000000 
	C342.333344,513.000000 171.666672,513.000000 1.000000,513.000000 
	C1.000000,408.500000 1.000000,304.000000 1.000000,199.000000 
M350.152405,63.976555 
	C340.392334,64.683304 330.628296,65.340286 320.873413,66.112434 
	C312.941711,66.740250 305.019012,67.484642 297.095856,68.215569 
	C283.565643,69.463768 270.042175,70.786156 256.508270,71.991959 
	C247.423630,72.801353 238.319824,73.395561 229.235413,74.207306 
	C215.702057,75.416588 202.184235,76.801308 188.648682,77.983986 
	C175.598999,79.124214 162.531281,80.056686 149.478653,81.164787 
	C134.948120,82.398354 120.419510,83.662033 105.902069,85.039124 
	C97.283035,85.856697 88.538429,86.564880 82.479630,94.067177 
	C80.207115,96.881119 78.269600,100.002266 75.770302,102.587982 
	C71.806419,106.688919 70.422615,111.618370 69.992775,117.056564 
	C69.313438,125.651619 68.570305,134.241852 67.812813,142.830460 
	C66.560966,157.024261 65.254501,171.213257 64.013252,185.407974 
	C63.247623,194.163589 62.622704,202.931747 61.823238,211.684097 
	C60.602646,225.046799 59.214951,238.394424 58.029984,251.760132 
	C56.887840,264.642822 55.958633,277.544281 54.852200,290.430298 
	C53.619030,304.792267 52.271130,319.144318 51.012554,333.504150 
	C50.245232,342.258972 49.585934,351.023285 48.818096,359.778076 
	C47.573120,373.973083 46.304356,388.166107 44.996490,402.355438 
	C44.114510,411.924286 43.423630,421.522003 42.157688,431.041687 
	C40.010899,447.185272 49.691929,460.059418 62.795128,461.163055 
	C66.426735,461.468964 70.053192,461.835541 73.683052,462.162781 
	C87.877159,463.442535 102.069763,464.739563 116.266769,465.986389 
	C125.187447,466.769897 134.119354,467.426453 143.038391,468.227386 
	C156.570648,469.442566 170.091507,470.786041 183.626007,471.974731 
	C193.042542,472.801758 202.480240,473.387604 211.897064,474.211670 
	C225.597519,475.410553 239.284561,476.762360 252.983414,477.980591 
	C261.903412,478.773804 270.837952,479.403381 279.759399,480.181488 
	C293.954681,481.419495 308.143677,482.728821 322.336823,483.991394 
	C331.419159,484.799316 340.496887,485.676331 349.589722,486.345245 
	C362.654022,487.306305 375.728943,488.126190 388.803528,488.938782 
	C389.926086,489.008514 391.107819,488.670319 392.215088,488.356079 
	C402.693481,485.382507 409.390198,475.810730 410.058990,463.909363 
	C410.616425,453.990356 412.044037,444.120636 412.615875,434.201935 
	C412.884796,429.537994 415.442108,428.353577 419.226044,428.064209 
	C428.651642,427.343597 438.073975,426.549896 447.510406,426.008850 
	C462.240112,425.164368 473.509399,413.231903 472.055511,400.628235 
	C471.353180,394.540039 471.426910,388.366455 470.963104,382.245636 
	C470.324310,373.816223 469.523895,365.398895 468.766449,356.978760 
	C467.519318,343.114471 466.218567,329.254913 465.003418,315.387848 
	C464.207245,306.301788 463.589325,297.199982 462.771667,288.116028 
	C461.568451,274.748566 460.180725,261.397461 459.015442,248.026886 
	C457.863922,234.814499 456.980957,221.578598 455.814636,208.367645 
	C454.649048,195.165268 453.178680,181.989731 452.025452,168.786392 
	C450.856781,155.405792 449.982025,141.999725 448.851562,128.615540 
	C447.638306,114.251602 446.242371,99.903168 444.991730,85.542274 
	C444.002655,74.185020 441.009918,62.899899 428.890228,60.031952 
	C419.985596,57.924805 418.839508,52.796940 416.679749,45.986420 
	C410.601166,26.818136 389.339203,20.312777 373.192230,27.508856 
	C360.452728,33.186363 354.071960,43.413380 353.969727,57.481777 
	C353.951782,59.952030 354.958496,63.117516 350.152405,63.976555 
z"/>
<path fill="#1C2D3E" opacity="1.000000" stroke="none" 
	d="
M350.596680,63.941818 
	C354.958496,63.117516 353.951782,59.952030 353.969727,57.481777 
	C354.071960,43.413380 360.452728,33.186363 373.192230,27.508856 
	C389.339203,20.312777 410.601166,26.818136 416.679749,45.986420 
	C418.839508,52.796940 419.985596,57.924805 428.890228,60.031952 
	C441.009918,62.899899 444.002655,74.185020 444.991730,85.542274 
	C446.242371,99.903168 447.638306,114.251602 448.851562,128.615540 
	C449.982025,141.999725 450.856781,155.405792 452.025452,168.786392 
	C453.178680,181.989731 454.649048,195.165268 455.814636,208.367645 
	C456.980957,221.578598 457.863922,234.814499 459.015442,248.026886 
	C460.180725,261.397461 461.568451,274.748566 462.771667,288.116028 
	C463.589325,297.199982 464.207245,306.301788 465.003418,315.387848 
	C466.218567,329.254913 467.519318,343.114471 468.766449,356.978760 
	C469.523895,365.398895 470.324310,373.816223 470.963104,382.245636 
	C471.426910,388.366455 471.353180,394.540039 472.055511,400.628235 
	C473.509399,413.231903 462.240112,425.164368 447.510406,426.008850 
	C438.073975,426.549896 428.651642,427.343597 419.226044,428.064209 
	C415.442108,428.353577 412.884796,429.537994 412.615875,434.201935 
	C412.044037,444.120636 410.616425,453.990356 410.058990,463.909363 
	C409.390198,475.810730 402.693481,485.382507 392.215088,488.356079 
	C391.107819,488.670319 389.926086,489.008514 388.803528,488.938782 
	C375.728943,488.126190 362.654022,487.306305 349.589722,486.345245 
	C340.496887,485.676331 331.419159,484.799316 322.336823,483.991394 
	C308.143677,482.728821 293.954681,481.419495 279.759399,480.181488 
	C270.837952,479.403381 261.903412,478.773804 252.983414,477.980591 
	C239.284561,476.762360 225.597519,475.410553 211.897064,474.211670 
	C202.480240,473.387604 193.042542,472.801758 183.626007,471.974731 
	C170.091507,470.786041 156.570648,469.442566 143.038391,468.227386 
	C134.119354,467.426453 125.187447,466.769897 116.266769,465.986389 
	C102.069763,464.739563 87.877159,463.442535 73.683052,462.162781 
	C70.053192,461.835541 66.426735,461.468964 62.795128,461.163055 
	C49.691929,460.059418 40.010899,447.185272 42.157688,431.041687 
	C43.423630,421.522003 44.114510,411.924286 44.996490,402.355438 
	C46.304356,388.166107 47.573120,373.973083 48.818096,359.778076 
	C49.585934,351.023285 50.245232,342.258972 51.012554,333.504150 
	C52.271130,319.144318 53.619030,304.792267 54.852200,290.430298 
	C55.958633,277.544281 56.887840,264.642822 58.029984,251.760132 
	C59.214951,238.394424 60.602646,225.046799 61.823238,211.684097 
	C62.622704,202.931747 63.247623,194.163589 64.013252,185.407974 
	C65.254501,171.213257 66.560966,157.024261 67.812813,142.830460 
	C68.570305,134.241852 69.313438,125.651619 69.992775,117.056564 
	C70.422615,111.618370 71.806419,106.688919 75.770302,102.587982 
	C78.269600,100.002266 80.207115,96.881119 82.479630,94.067177 
	C88.538429,86.564880 97.283035,85.856697 105.902069,85.039124 
	C120.419510,83.662033 134.948120,82.398354 149.478653,81.164787 
	C162.531281,80.056686 175.598999,79.124214 188.648682,77.983986 
	C202.184235,76.801308 215.702057,75.416588 229.235413,74.207306 
	C238.319824,73.395561 247.423630,72.801353 256.508270,71.991959 
	C270.042175,70.786156 283.565643,69.463768 297.095856,68.215569 
	C305.019012,67.484642 312.941711,66.740250 320.873413,66.112434 
	C330.628296,65.340286 340.392334,64.683304 350.596680,63.941818 
M423.938538,75.328438 
	C418.487732,73.282837 413.956024,73.708595 409.768005,78.618393 
	C403.599792,85.849815 395.224121,89.163544 385.778564,88.788330 
	C382.165497,88.644806 380.934296,89.988083 379.746979,92.947647 
	C376.714874,100.505463 373.435669,107.968262 370.090851,115.395004 
	C367.897308,120.265511 363.862701,122.021141 359.625488,120.280540 
	C355.118774,118.429222 353.556274,114.240768 355.479462,109.063301 
	C356.000122,107.661690 356.620697,106.296783 357.208618,104.920670 
	C360.445526,97.344337 363.686523,89.769775 367.410767,81.061295 
	C364.268738,80.396133 361.858063,79.336075 359.526947,79.488960 
	C350.224243,80.099098 340.949066,81.118729 331.658661,81.928833 
	C295.658295,85.068008 259.653687,88.159271 223.654938,91.317009 
	C183.344131,94.852989 143.039993,98.465088 102.727837,101.985458 
	C95.603828,102.607582 92.645828,105.979294 93.275612,113.092377 
	C97.813919,164.350861 102.355247,215.609100 106.852371,266.871185 
	C111.567833,320.622070 116.231895,374.377472 120.927567,428.130096 
	C121.486443,434.527710 124.721718,437.379608 131.138336,436.836853 
	C154.867645,434.829620 178.591599,432.758331 202.313721,430.667511 
	C245.942062,426.822113 289.566437,422.931610 333.194855,419.086853 
	C370.685028,415.783081 408.181366,412.548645 445.668427,409.210114 
	C454.198822,408.450409 456.475098,405.273956 455.643921,396.699280 
	C454.326447,383.108093 453.194305,369.498871 452.002289,355.895660 
	C449.516296,327.526794 447.048981,299.156342 444.561951,270.787598 
	C441.711334,238.271667 438.845459,205.757095 435.990234,173.241577 
	C433.324402,142.882812 430.722992,112.518051 427.877960,82.176117 
	C427.670959,79.968391 425.712494,77.924896 423.938538,75.328438 
M94.120079,307.305603 
	C90.335304,263.699097 86.550529,220.092621 82.765755,176.486130 
	C82.264145,176.522141 81.762535,176.558151 81.260925,176.594147 
	C81.152374,177.551468 81.022354,178.506897 80.938354,179.466370 
	C77.538780,218.297165 74.155869,257.129425 70.744179,295.959167 
	C66.676453,342.255493 62.573975,388.548828 58.515377,434.845947 
	C57.958324,441.200287 60.777065,444.519135 67.183662,445.123627 
	C80.782135,446.406738 94.385452,447.639069 107.989777,448.858856 
	C110.131126,449.050842 112.288139,449.068298 115.792160,449.228271 
	C109.241829,443.879059 105.800339,438.490356 105.091095,431.681763 
	C104.262772,423.729980 103.676178,415.753082 102.973953,407.788055 
	C100.048080,374.601318 97.118156,341.414886 94.120079,307.305603 
M313.754456,466.793304 
	C320.555481,467.377319 327.357513,467.949860 334.157318,468.547668 
	C350.575897,469.991058 366.987762,471.515991 383.414459,472.859436 
	C389.330292,473.343292 392.526764,470.466309 393.095673,464.691040 
	C393.699615,458.560791 394.322144,452.431854 394.855377,446.295319 
	C395.323212,440.911682 395.678711,435.518341 396.118286,429.670868 
	C312.847626,436.945221 230.356918,444.151428 147.866226,451.357666 
	C149.423279,452.116180 151.010086,452.565735 152.623917,452.707184 
	C180.652267,455.163849 208.685059,457.569885 236.714554,460.013519 
	C262.089996,462.225708 287.462646,464.469849 313.754456,466.793304 
M401.294067,51.669044 
	C400.682281,50.488674 400.196198,49.219810 399.437897,48.142597 
	C395.222198,42.153934 388.473236,39.747887 381.950592,41.823700 
	C374.836639,44.087708 370.225311,50.318760 370.325714,57.531780 
	C370.414734,63.924599 375.423737,69.801735 381.966278,72.257835 
	C390.864716,75.598335 405.168579,67.139519 401.294067,51.669044 
z"/>
<path fill="#D3DCE5" opacity="1.000000" stroke="none" 
	d="
M424.253448,75.566742 
	C425.712494,77.924896 427.670959,79.968391 427.877960,82.176117 
	C430.722992,112.518051 433.324402,142.882812 435.990234,173.241577 
	C438.845459,205.757095 441.711334,238.271667 444.561951,270.787598 
	C447.048981,299.156342 449.516296,327.526794 452.002289,355.895660 
	C453.194305,369.498871 454.326447,383.108093 455.643921,396.699280 
	C456.475098,405.273956 454.198822,408.450409 445.668427,409.210114 
	C408.181366,412.548645 370.685028,415.783081 333.194855,419.086853 
	C289.566437,422.931610 245.942062,426.822113 202.313721,430.667511 
	C178.591599,432.758331 154.867645,434.829620 131.138336,436.836853 
	C124.721718,437.379608 121.486443,434.527710 120.927567,428.130096 
	C116.231895,374.377472 111.567833,320.622070 106.852371,266.871185 
	C102.355247,215.609100 97.813919,164.350861 93.275612,113.092377 
	C92.645828,105.979294 95.603828,102.607582 102.727837,101.985458 
	C143.039993,98.465088 183.344131,94.852989 223.654938,91.317009 
	C259.653687,88.159271 295.658295,85.068008 331.658661,81.928833 
	C340.949066,81.118729 350.224243,80.099098 359.526947,79.488960 
	C361.858063,79.336075 364.268738,80.396133 367.410767,81.061295 
	C363.686523,89.769775 360.445526,97.344337 357.208618,104.920670 
	C356.620697,106.296783 356.000122,107.661690 355.479462,109.063301 
	C353.556274,114.240768 355.118774,118.429222 359.625488,120.280540 
	C363.862701,122.021141 367.897308,120.265511 370.090851,115.395004 
	C373.435669,107.968262 376.714874,100.505463 379.746979,92.947647 
	C380.934296,89.988083 382.165497,88.644806 385.778564,88.788330 
	C395.224121,89.163544 403.599792,85.849815 409.768005,78.618393 
	C413.956024,73.708595 418.487732,73.282837 424.253448,75.566742 
z"/>
<path fill="#B6C1D3" opacity="1.000000" stroke="none" 
	d="
M94.154907,307.766968 
	C97.118156,341.414886 100.048080,374.601318 102.973953,407.788055 
	C103.676178,415.753082 104.262772,423.729980 105.091095,431.681763 
	C105.800339,438.490356 109.241829,443.879059 115.792160,449.228271 
	C112.288139,449.068298 110.131126,449.050842 107.989777,448.858856 
	C94.385452,447.639069 80.782135,446.406738 67.183662,445.123627 
	C60.777065,444.519135 57.958324,441.200287 58.515377,434.845947 
	C62.573975,388.548828 66.676453,342.255493 70.744179,295.959167 
	C74.155869,257.129425 77.538780,218.297165 80.938354,179.466370 
	C81.022354,178.506897 81.152374,177.551468 81.260925,176.594147 
	C81.762535,176.558151 82.264145,176.522141 82.765755,176.486130 
	C86.550529,220.092621 90.335304,263.699097 94.154907,307.766968 
z"/>
<path fill="#B6C1D3" opacity="1.000000" stroke="none" 
	d="
M313.295471,466.746613 
	C287.462646,464.469849 262.089996,462.225708 236.714554,460.013519 
	C208.685059,457.569885 180.652267,455.163849 152.623917,452.707184 
	C151.010086,452.565735 149.423279,452.116180 147.866226,451.357666 
	C230.356918,444.151428 312.847626,436.945221 396.118286,429.670868 
	C395.678711,435.518341 395.323212,440.911682 394.855377,446.295319 
	C394.322144,452.431854 393.699615,458.560791 393.095673,464.691040 
	C392.526764,470.466309 389.330292,473.343292 383.414459,472.859436 
	C366.987762,471.515991 350.575897,469.991058 334.157318,468.547668 
	C327.357513,467.949860 320.555481,467.377319 313.295471,466.746613 
z"/>
<path fill="#335067" opacity="1.000000" stroke="none" 
	d="
M401.438019,52.051315 
	C405.168579,67.139519 390.864716,75.598335 381.966278,72.257835 
	C375.423737,69.801735 370.414734,63.924599 370.325714,57.531780 
	C370.225311,50.318760 374.836639,44.087708 381.950592,41.823700 
	C388.473236,39.747887 395.222198,42.153934 399.437897,48.142597 
	C400.196198,49.219810 400.682281,50.488674 401.438019,52.051315 
z"/>
</svg>